<?xml version="1.0" encoding="UTF-8" standalone="no"?>
<!-- Created with Inkscape (http://www.inkscape.org/) -->

<svg
   xmlns:dc="http://purl.org/dc/elements/1.1/"
   xmlns:cc="http://creativecommons.org/ns#"
   xmlns:rdf="http://www.w3.org/1999/02/22-rdf-syntax-ns#"
   xmlns:svg="http://www.w3.org/2000/svg"
   xmlns="http://www.w3.org/2000/svg"
   xmlns:sodipodi="http://sodipodi.sourceforge.net/DTD/sodipodi-0.dtd"
   xmlns:inkscape="http://www.inkscape.org/namespaces/inkscape"
   width="744.09448819"
   height="1052.3622047"
   id="svg3877"
   version="1.1"
   inkscape:version="0.48.0 r9654"
   sodipodi:docname="message.svg">
  <defs
     id="defs3879" />
  <sodipodi:namedview
     id="base"
     pagecolor="#ffffff"
     bordercolor="#666666"
     borderopacity="1.0"
     inkscape:pageopacity="0.0"
     inkscape:pageshadow="2"
     inkscape:zoom="0.7"
     inkscape:cx="293.13738"
     inkscape:cy="633.47347"
     inkscape:document-units="px"
     inkscape:current-layer="layer3"
     showgrid="false"
     inkscape:window-width="983"
     inkscape:window-height="724"
     inkscape:window-x="20"
     inkscape:window-y="20"
     inkscape:window-maximized="0"
     showguides="false">
    <inkscape:grid
       type="xygrid"
       id="grid4447" />
  </sodipodi:namedview>
  <metadata
     id="metadata3882">
    <rdf:RDF>
      <cc:Work
         rdf:about="">
        <dc:format>image/svg+xml</dc:format>
        <dc:type
           rdf:resource="http://purl.org/dc/dcmitype/StillImage" />
        <dc:title></dc:title>
      </cc:Work>
    </rdf:RDF>
  </metadata>
  <g
     inkscape:label="Background"
     inkscape:groupmode="layer"
     id="layer1">
    <rect
       style="fill:#e6e6e6;fill-opacity:1;stroke:none;opacity:0"
       id="rect3885"
       width="500"
       height="500"
       x="107.14285"
       y="112.36218"
       inkscape:export-filename="/Users/jweiss/Source/dragongoclient/Images/Message on@2x.png"
       inkscape:export-xdpi="7.1999998"
       inkscape:export-ydpi="7.1999998" />
    <rect
       y="652.36218"
       x="105.71429"
       height="500"
       width="500"
       id="rect4429"
       style="fill:#e6e6e6;fill-opacity:1;stroke:none;opacity:0" />
  </g>
  <g
     inkscape:groupmode="layer"
     id="layer3"
     inkscape:label="Shape">
    <g
       id="g4454"
       inkscape:export-filename="/Users/jweiss/Source/dragongoclient/Images/Message on@2x.png"
       inkscape:export-xdpi="7.1999998"
       inkscape:export-ydpi="7.1999998"
       style="fill:#ffffff;fill-opacity:1">
      <path
         id="rect4396"
         d="M 225.71875 220.9375 C 184.56446 220.9375 151.4375 254.06446 151.4375 295.21875 L 151.4375 380.9375 C 151.4375 422.09179 184.56446 455.21875 225.71875 455.21875 L 487.15625 455.21875 C 528.31054 455.21875 561.4375 422.09179 561.4375 380.9375 L 561.4375 295.21875 C 561.4375 254.06446 528.31054 220.9375 487.15625 220.9375 L 225.71875 220.9375 z M 257.84375 300.21875 C 275.59576 300.21875 290 314.62299 290 332.375 C 290 350.12701 275.59576 364.5 257.84375 364.5 C 240.09174 364.5 225.71875 350.12701 225.71875 332.375 C 225.71875 314.62299 240.09174 300.21875 257.84375 300.21875 z M 357.84375 300.21875 C 375.59576 300.21875 390 314.62299 390 332.375 C 390 350.12701 375.59576 364.5 357.84375 364.5 C 340.09174 364.5 325.71875 350.12701 325.71875 332.375 C 325.71875 314.62299 340.09174 300.21875 357.84375 300.21875 z M 457.84375 300.21875 C 475.59576 300.21875 490 314.62299 490 332.375 C 490 350.12701 475.59576 364.5 457.84375 364.5 C 440.09174 364.5 425.71875 350.12701 425.71875 332.375 C 425.71875 314.62299 440.09174 300.21875 457.84375 300.21875 z "
         style="fill:#ffffff;fill-opacity:1;stroke:none" />
      <path
         transform="matrix(0.91495272,0.5569652,-0.54555556,1.3182275,313.38345,-638.74416)"
         inkscape:transform-center-y="20.311518"
         inkscape:transform-center-x="-11.28793"
         d="m 370,726.64792 -40.82691,-70.71429 81.65382,10e-6 z"
         inkscape:randomized="0"
         inkscape:rounded="0"
         inkscape:flatsided="true"
         sodipodi:arg2="2.617994"
         sodipodi:arg1="1.5707964"
         sodipodi:r2="26.225084"
         sodipodi:r1="47.142857"
         sodipodi:cy="679.50507"
         sodipodi:cx="370"
         sodipodi:sides="3"
         id="path4402"
         style="fill:#ffffff;fill-opacity:1;stroke:none"
         sodipodi:type="star" />
    </g>
    <g
       transform="translate(1.4285715,418.57143)"
       id="g4431"
       style="fill:#ffffff;fill-opacity:1">
      <rect
         style="fill:#ffffff;fill-opacity:1;stroke:none"
         id="rect4433"
         width="409.99997"
         height="234.28568"
         x="148.57143"
         y="342.36221"
         ry="74.285713" />
      <path
         sodipodi:type="star"
         style="fill:#ffffff;fill-opacity:1;stroke:none"
         id="path4435"
         sodipodi:sides="3"
         sodipodi:cx="370"
         sodipodi:cy="679.50507"
         sodipodi:r1="47.142857"
         sodipodi:r2="26.225084"
         sodipodi:arg1="1.5707964"
         sodipodi:arg2="2.617994"
         inkscape:flatsided="true"
         inkscape:rounded="0"
         inkscape:randomized="0"
         d="m 370,726.64792 -40.82691,-70.71429 81.65382,10e-6 z"
         inkscape:transform-center-x="-11.28793"
         inkscape:transform-center-y="20.311518"
         transform="matrix(0.91495272,0.5569652,-0.54555556,1.3182275,310.52631,-517.31559)" />
    </g>
  </g>
</svg>
